Coordinates
version=1
nRows=38
nColumns=12
inDegrees=yes

Units are S.I. units (second, meters, Newtons, ...)
Angles are in degrees

endheader
time	SC_y	SC_z	SC_x	AC_y	AC_z	AC_x	GH_y	GH_z	GH_yy	EL_x	PS_y
       0.0              -52.45          30.27          1.802          32.63          9.808         -7.419         -139.8         -13.18          75.09          39.98          63.67
   0.02836              -52.44          30.26          1.813          32.63          9.806         -7.417         -139.8         -13.17          75.09          39.98          63.67
   0.05672              -52.44          30.26          1.824          32.64          9.804         -7.415         -139.8         -13.16          75.09          39.98          63.68
   0.08508              -52.43          30.26          1.836          32.65          9.802         -7.413         -139.8         -13.15          75.09          39.98          63.68
    0.1134              -52.43          30.26          1.849          32.65            9.8          -7.41         -139.8         -13.13          75.09          39.98          63.68
    0.1418              -52.43          30.25          1.862          32.66          9.797         -7.408         -139.8         -13.12          75.09          39.98          63.69
    0.1702              -52.42          30.25          1.877          32.67          9.795         -7.405         -139.8          -13.1          75.09          39.98          63.69
    0.1985              -52.42          30.25          1.893          32.67          9.792         -7.402         -139.8         -13.08          75.09          39.97           63.7
    0.2269              -52.41          30.24          1.909          32.68          9.789         -7.399         -139.8         -13.06           75.1          39.97           63.7
    0.2553              -52.41          30.24          1.927          32.69          9.786         -7.395         -139.7         -13.04           75.1          39.97           63.7
    0.2836               -52.4          30.23          1.946           32.7          9.782         -7.392         -139.7         -13.02           75.1          39.97          63.71
     0.312              -52.39          30.23          1.967          32.71          9.779         -7.388         -139.7          -13.0           75.1          39.97          63.71
    0.3403              -52.39          30.22          1.989          32.72          9.775         -7.384         -139.7         -12.98           75.1          39.97          63.72
    0.3687              -52.38          30.22          2.013          32.73          9.771         -7.379         -139.7         -12.95           75.1          39.96          63.73
    0.3971              -52.37          30.21           2.04          32.75          9.766         -7.374         -139.7         -12.92           75.1          39.96          63.73
    0.4254              -52.36           30.2          2.068          32.76          9.761         -7.369         -139.6         -12.89           75.1          39.96          63.74
    0.4538              -52.35           30.2          2.099          32.77          9.756         -7.363         -139.6         -12.86           75.1          39.96          63.75
    0.4821              -52.34          30.19          2.132          32.79           9.75         -7.357         -139.6         -12.82          75.11          39.96          63.76
    0.5105              -52.33          30.18          2.169          32.81          9.744          -7.35         -139.6         -12.78          75.11          39.95          63.77
    0.5389              -52.32          30.17          2.209          32.83          9.737         -7.342         -139.5         -12.73          75.11          39.95          63.78
    0.5672               -52.3          30.16          2.252          32.85          9.729         -7.334         -139.5         -12.69          75.11          39.95          63.79
    0.5956              -52.29          30.15          2.301          32.87           9.72         -7.325         -139.5         -12.63          75.12          39.94           63.8
     0.624              -52.27          30.14          2.354           32.9          9.711         -7.314         -139.4         -12.57          75.12          39.94          63.81
    0.6523              -52.25          30.12          2.413          32.93          9.701         -7.303         -139.4         -12.51          75.12          39.93          63.83
    0.6807              -52.23          30.11          2.479          32.96          9.689         -7.291         -139.3         -12.43          75.12          39.93          63.85
     0.709              -52.21          30.09          2.553           33.0          9.676         -7.277         -139.3         -12.35          75.13          39.92          63.87
    0.7374              -52.19          30.07          2.635          33.04          9.662         -7.261         -139.2         -12.26          75.13          39.92          63.89
    0.7658              -52.16          30.05          2.727          33.08          9.646         -7.244         -139.1         -12.16          75.14          39.91          63.91
    0.7941              -52.12          30.02          2.832          33.13          9.628         -7.224         -139.1         -12.05          75.14           39.9          63.94
    0.8225              -52.09           30.0          2.951          33.19          9.607         -7.201         -139.0         -11.91          75.15          39.89          63.97
    0.8508              -52.04          29.96          3.086          33.26          9.583         -7.176         -138.9         -11.76          75.15          39.88           64.0
    0.8792               -52.0          29.93          3.241          33.34          9.556         -7.146         -138.8         -11.59          75.16          39.87          64.04
    0.9076              -51.94          29.88          3.421          33.42          9.525         -7.112         -138.6         -11.39          75.17          39.86          64.09
    0.9359              -51.87          29.83          3.629          33.53          9.488         -7.073         -138.5         -11.16          75.18          39.84          64.14
    0.9643               -51.8          29.78          3.873          33.65          9.445         -7.026         -138.3         -10.89          75.19          39.82          64.21
    0.9927              -51.71          29.71          4.161          33.79          9.395         -6.972         -138.1         -10.58          75.21           39.8          64.28
     1.021               -51.6          29.63          4.503          33.95          9.335         -6.907         -137.8          -10.2          75.23          39.78          64.37
     1.049              -51.47          29.53          4.913          34.15          9.264          -6.83         -137.5         -9.746          75.25          39.75          64.48
